<svg xmlns="http://www.w3.org/2000/svg" viewBox="0 0 40 40"><defs><style>.a{fill:#3f5d45}</style></defs><path class="a" d="M20 38a18 18 0 01-7.007-34.586 18.005 18.005 0 0114.014 33.172A17.888 17.888 0 0120 38zm-9.832-8.105a4.947 4.947 0 011.777.436 10 10 0 003.941.766 10.132 10.132 0 006.543-2.041 5.691 5.691 0 00-.063-9.248l-2.61-2.346c-1.126-1.017-2.226-2.162-2.226-4.019 0-2.124 1.845-3.607 4.487-3.607a5.37 5.37 0 012.973.909 3.463 3.463 0 011.543 2.933 5.736 5.736 0 01-.242 1.65l-.022.08h.352l2.023-5.6-.44-.088a1.048 1.048 0 01-1.056.762 5.47 5.47 0 01-1.724-.4 9.833 9.833 0 00-3.408-.656 9.023 9.023 0 00-5.37 1.646 5.051 5.051 0 00-2.225 4.043c0 2.249 1.161 3.761 2.9 5.338l2.082 1.905a4.649 4.649 0 011.76 3.637 4.387 4.387 0 01-1.426 3.39 5.907 5.907 0 01-4 1.3 6.065 6.065 0 01-3.321-1.023 3.627 3.627 0 01-1.694-3.024 4.921 4.921 0 01.378-1.714l.005-.016h-.379l-2.082 5.836.41.088a1.161 1.161 0 011.114-.937zM28.584 19.8a3.727 3.727 0 01-.745 1.18l-.107.138a9.553 9.553 0 01-.144.189 1.955 1.955 0 00-.541 1.131.789.789 0 00.852.786.889.889 0 00.919-.919 5.776 5.776 0 00-.088-.739l-.029-.2a4.156 4.156 0 01-.058-1.5l.007-.054a5.525 5.525 0 01.787 1.554c.245.669.421 1.153 1.117 1.153a.905.905 0 00.869-.935c0-.381-.259-.674-.769-.869a9.23 9.23 0 01-1.955-.952 4.856 4.856 0 01.554-.031 9.087 9.087 0 011.2.1l.191.028a3.8 3.8 0 00.544.055.847.847 0 00.935-.869.918.918 0 00-.868-.919 2.176 2.176 0 00-1.237.718 3.788 3.788 0 01-1.337.852 4.105 4.105 0 01.836-1.319c.045-.062.094-.124.143-.187a1.958 1.958 0 00.542-1.133.789.789 0 00-.852-.785.889.889 0 00-.919.919 5.778 5.778 0 00.088.738l.029.2a4.312 4.312 0 01.067 1.553 5.621 5.621 0 01-.79-1.546c-.251-.674-.432-1.16-1.131-1.16a.905.905 0 00-.868.936c0 .382.259.674.769.868a8.851 8.851 0 011.955.952 4.89 4.89 0 01-.558.031 9.039 9.039 0 01-1.2-.1l-.2-.029a3.657 3.657 0 00-.537-.055.847.847 0 00-.935.868.918.918 0 00.868.919 2.177 2.177 0 001.236-.718 3.93 3.93 0 011.352-.852z"/><path class="a" d="M20 40a20.005 20.005 0 01-7.785-38.428 20.005 20.005 0 0115.57 36.857A19.875 19.875 0 0120 40zM20 .5a19.505 19.505 0 00-7.59 37.468A19.505 19.505 0 0027.59 2.032 19.379 19.379 0 0020 .5z"/></svg>